<mxfile host="app.diagrams.net" modified="2023-10-18T11:08:15.787Z" agent="Mozilla/5.0 (X11; Linux x86_64) AppleWebKit/537.36 (KHTML, like Gecko) Chrome/117.0.0.0 Safari/537.36" etag="UIHcKpD3GPWeiBz0_8Ic" version="22.0.4" type="device">
  <diagram name="1 oldal" id="UXlODSkF1jPowVCEgvz8">
    <mxGraphModel dx="1860" dy="847" grid="1" gridSize="10" guides="1" tooltips="1" connect="1" arrows="1" fold="1" page="1" pageScale="1" pageWidth="827" pageHeight="1169" math="0" shadow="0">
      <root>
        <mxCell id="0" />
        <mxCell id="1" parent="0" />
        <mxCell id="jMVin0_qPQL34S8nM-Jz-13" value="Fesztivál" style="ellipse;shape=doubleEllipse;margin=3;whiteSpace=wrap;html=1;align=center;" vertex="1" parent="1">
          <mxGeometry x="300" y="550" width="130" height="50" as="geometry" />
        </mxCell>
        <mxCell id="jMVin0_qPQL34S8nM-Jz-14" value="név" style="ellipse;whiteSpace=wrap;html=1;" vertex="1" parent="1">
          <mxGeometry x="200" y="770" width="100" height="50" as="geometry" />
        </mxCell>
        <mxCell id="jMVin0_qPQL34S8nM-Jz-15" value="helyszín" style="ellipse;whiteSpace=wrap;html=1;" vertex="1" parent="1">
          <mxGeometry x="330" y="770" width="100" height="50" as="geometry" />
        </mxCell>
        <mxCell id="jMVin0_qPQL34S8nM-Jz-16" value="év" style="ellipse;whiteSpace=wrap;html=1;" vertex="1" parent="1">
          <mxGeometry x="450" y="770" width="100" height="50" as="geometry" />
        </mxCell>
        <mxCell id="jMVin0_qPQL34S8nM-Jz-21" value="&lt;u&gt;feszkód&lt;/u&gt;" style="strokeWidth=2;html=1;shape=mxgraph.flowchart.decision;whiteSpace=wrap;" vertex="1" parent="1">
          <mxGeometry x="100" y="755" width="60" height="85" as="geometry" />
        </mxCell>
        <mxCell id="jMVin0_qPQL34S8nM-Jz-24" value="" style="endArrow=none;html=1;rounded=0;entryX=1;entryY=1;entryDx=0;entryDy=0;" edge="1" parent="1" source="jMVin0_qPQL34S8nM-Jz-16" target="jMVin0_qPQL34S8nM-Jz-13">
          <mxGeometry width="50" height="50" relative="1" as="geometry">
            <mxPoint x="450" y="760" as="sourcePoint" />
            <mxPoint x="500" y="710" as="targetPoint" />
          </mxGeometry>
        </mxCell>
        <mxCell id="jMVin0_qPQL34S8nM-Jz-27" value="" style="endArrow=none;html=1;rounded=0;" edge="1" parent="1" source="jMVin0_qPQL34S8nM-Jz-15" target="jMVin0_qPQL34S8nM-Jz-13">
          <mxGeometry width="50" height="50" relative="1" as="geometry">
            <mxPoint x="545" y="787" as="sourcePoint" />
            <mxPoint x="419" y="668" as="targetPoint" />
          </mxGeometry>
        </mxCell>
        <mxCell id="jMVin0_qPQL34S8nM-Jz-28" value="" style="endArrow=none;html=1;rounded=0;entryX=0;entryY=1;entryDx=0;entryDy=0;" edge="1" parent="1" source="jMVin0_qPQL34S8nM-Jz-14" target="jMVin0_qPQL34S8nM-Jz-13">
          <mxGeometry width="50" height="50" relative="1" as="geometry">
            <mxPoint x="555" y="797" as="sourcePoint" />
            <mxPoint x="429" y="678" as="targetPoint" />
          </mxGeometry>
        </mxCell>
        <mxCell id="jMVin0_qPQL34S8nM-Jz-29" value="" style="endArrow=none;html=1;rounded=0;exitX=0.883;exitY=0.34;exitDx=0;exitDy=0;exitPerimeter=0;entryX=0;entryY=0.5;entryDx=0;entryDy=0;" edge="1" parent="1" source="jMVin0_qPQL34S8nM-Jz-21" target="jMVin0_qPQL34S8nM-Jz-13">
          <mxGeometry width="50" height="50" relative="1" as="geometry">
            <mxPoint x="565" y="807" as="sourcePoint" />
            <mxPoint x="439" y="688" as="targetPoint" />
          </mxGeometry>
        </mxCell>
        <mxCell id="jMVin0_qPQL34S8nM-Jz-349" value="" style="rounded=0;whiteSpace=wrap;html=1;" vertex="1" parent="1">
          <mxGeometry x="220" y="860" width="50" height="60" as="geometry" />
        </mxCell>
        <mxCell id="jMVin0_qPQL34S8nM-Jz-350" value="" style="rounded=0;whiteSpace=wrap;html=1;" vertex="1" parent="1">
          <mxGeometry x="475" y="860" width="50" height="60" as="geometry" />
        </mxCell>
        <mxCell id="jMVin0_qPQL34S8nM-Jz-352" value="" style="endArrow=none;html=1;rounded=0;entryX=0.5;entryY=0;entryDx=0;entryDy=0;" edge="1" parent="1" target="jMVin0_qPQL34S8nM-Jz-349">
          <mxGeometry width="50" height="50" relative="1" as="geometry">
            <mxPoint x="245" y="820" as="sourcePoint" />
            <mxPoint x="500" y="690" as="targetPoint" />
          </mxGeometry>
        </mxCell>
        <mxCell id="jMVin0_qPQL34S8nM-Jz-353" value="" style="endArrow=none;html=1;rounded=0;exitX=0.5;exitY=1;exitDx=0;exitDy=0;" edge="1" parent="1" source="jMVin0_qPQL34S8nM-Jz-16" target="jMVin0_qPQL34S8nM-Jz-350">
          <mxGeometry width="50" height="50" relative="1" as="geometry">
            <mxPoint x="450" y="740" as="sourcePoint" />
            <mxPoint x="500" y="690" as="targetPoint" />
          </mxGeometry>
        </mxCell>
        <mxCell id="jMVin0_qPQL34S8nM-Jz-354" value="Tulajdonos" style="ellipse;shape=doubleEllipse;margin=3;whiteSpace=wrap;html=1;align=center;" vertex="1" parent="1">
          <mxGeometry x="960" y="540" width="130" height="50" as="geometry" />
        </mxCell>
        <mxCell id="jMVin0_qPQL34S8nM-Jz-355" value="név" style="ellipse;whiteSpace=wrap;html=1;" vertex="1" parent="1">
          <mxGeometry x="810" y="770" width="100" height="50" as="geometry" />
        </mxCell>
        <mxCell id="jMVin0_qPQL34S8nM-Jz-356" value="alapítás" style="ellipse;whiteSpace=wrap;html=1;" vertex="1" parent="1">
          <mxGeometry x="940" y="770" width="100" height="50" as="geometry" />
        </mxCell>
        <mxCell id="jMVin0_qPQL34S8nM-Jz-357" value="adószám" style="ellipse;whiteSpace=wrap;html=1;" vertex="1" parent="1">
          <mxGeometry x="1060" y="770" width="100" height="50" as="geometry" />
        </mxCell>
        <mxCell id="jMVin0_qPQL34S8nM-Jz-358" value="&lt;u&gt;tkód&lt;/u&gt;" style="strokeWidth=2;html=1;shape=mxgraph.flowchart.decision;whiteSpace=wrap;" vertex="1" parent="1">
          <mxGeometry x="730" y="750" width="60" height="90" as="geometry" />
        </mxCell>
        <mxCell id="jMVin0_qPQL34S8nM-Jz-359" value="" style="endArrow=none;html=1;rounded=0;entryX=1;entryY=1;entryDx=0;entryDy=0;" edge="1" parent="1" source="jMVin0_qPQL34S8nM-Jz-357" target="jMVin0_qPQL34S8nM-Jz-354">
          <mxGeometry width="50" height="50" relative="1" as="geometry">
            <mxPoint x="1060" y="760" as="sourcePoint" />
            <mxPoint x="1110" y="710" as="targetPoint" />
          </mxGeometry>
        </mxCell>
        <mxCell id="jMVin0_qPQL34S8nM-Jz-360" value="" style="endArrow=none;html=1;rounded=0;" edge="1" parent="1" source="jMVin0_qPQL34S8nM-Jz-356" target="jMVin0_qPQL34S8nM-Jz-354">
          <mxGeometry width="50" height="50" relative="1" as="geometry">
            <mxPoint x="1155" y="787" as="sourcePoint" />
            <mxPoint x="1029" y="668" as="targetPoint" />
          </mxGeometry>
        </mxCell>
        <mxCell id="jMVin0_qPQL34S8nM-Jz-361" value="" style="endArrow=none;html=1;rounded=0;entryX=0;entryY=1;entryDx=0;entryDy=0;" edge="1" parent="1" source="jMVin0_qPQL34S8nM-Jz-355" target="jMVin0_qPQL34S8nM-Jz-354">
          <mxGeometry width="50" height="50" relative="1" as="geometry">
            <mxPoint x="1165" y="797" as="sourcePoint" />
            <mxPoint x="1039" y="678" as="targetPoint" />
          </mxGeometry>
        </mxCell>
        <mxCell id="jMVin0_qPQL34S8nM-Jz-362" value="" style="endArrow=none;html=1;rounded=0;exitX=0.883;exitY=0.34;exitDx=0;exitDy=0;exitPerimeter=0;entryX=0;entryY=0.5;entryDx=0;entryDy=0;" edge="1" parent="1" source="jMVin0_qPQL34S8nM-Jz-358" target="jMVin0_qPQL34S8nM-Jz-354">
          <mxGeometry width="50" height="50" relative="1" as="geometry">
            <mxPoint x="1175" y="807" as="sourcePoint" />
            <mxPoint x="1049" y="688" as="targetPoint" />
          </mxGeometry>
        </mxCell>
        <mxCell id="jMVin0_qPQL34S8nM-Jz-363" value="" style="rounded=0;whiteSpace=wrap;html=1;" vertex="1" parent="1">
          <mxGeometry x="830" y="860" width="50" height="60" as="geometry" />
        </mxCell>
        <mxCell id="jMVin0_qPQL34S8nM-Jz-364" value="" style="rounded=0;whiteSpace=wrap;html=1;" vertex="1" parent="1">
          <mxGeometry x="1085" y="860" width="50" height="60" as="geometry" />
        </mxCell>
        <mxCell id="jMVin0_qPQL34S8nM-Jz-365" value="" style="endArrow=none;html=1;rounded=0;entryX=0.5;entryY=0;entryDx=0;entryDy=0;" edge="1" parent="1" target="jMVin0_qPQL34S8nM-Jz-363">
          <mxGeometry width="50" height="50" relative="1" as="geometry">
            <mxPoint x="855" y="820" as="sourcePoint" />
            <mxPoint x="1110" y="690" as="targetPoint" />
          </mxGeometry>
        </mxCell>
        <mxCell id="jMVin0_qPQL34S8nM-Jz-366" value="" style="endArrow=none;html=1;rounded=0;exitX=0.5;exitY=1;exitDx=0;exitDy=0;" edge="1" parent="1" source="jMVin0_qPQL34S8nM-Jz-357" target="jMVin0_qPQL34S8nM-Jz-364">
          <mxGeometry width="50" height="50" relative="1" as="geometry">
            <mxPoint x="1060" y="740" as="sourcePoint" />
            <mxPoint x="1110" y="690" as="targetPoint" />
          </mxGeometry>
        </mxCell>
        <mxCell id="jMVin0_qPQL34S8nM-Jz-367" value="" style="rounded=0;whiteSpace=wrap;html=1;" vertex="1" parent="1">
          <mxGeometry x="350" y="860" width="50" height="60" as="geometry" />
        </mxCell>
        <mxCell id="jMVin0_qPQL34S8nM-Jz-369" value="" style="endArrow=none;html=1;rounded=0;entryX=0.5;entryY=0;entryDx=0;entryDy=0;" edge="1" parent="1" source="jMVin0_qPQL34S8nM-Jz-15" target="jMVin0_qPQL34S8nM-Jz-367">
          <mxGeometry width="50" height="50" relative="1" as="geometry">
            <mxPoint x="380" y="820" as="sourcePoint" />
            <mxPoint x="520" y="880" as="targetPoint" />
          </mxGeometry>
        </mxCell>
        <mxCell id="jMVin0_qPQL34S8nM-Jz-370" value="" style="rounded=0;whiteSpace=wrap;html=1;" vertex="1" parent="1">
          <mxGeometry x="960" y="860" width="50" height="60" as="geometry" />
        </mxCell>
        <mxCell id="jMVin0_qPQL34S8nM-Jz-371" value="" style="endArrow=none;html=1;rounded=0;entryX=0.5;entryY=0;entryDx=0;entryDy=0;" edge="1" parent="1" source="jMVin0_qPQL34S8nM-Jz-356" target="jMVin0_qPQL34S8nM-Jz-370">
          <mxGeometry width="50" height="50" relative="1" as="geometry">
            <mxPoint x="985" y="830" as="sourcePoint" />
            <mxPoint x="1120" y="870" as="targetPoint" />
          </mxGeometry>
        </mxCell>
        <mxCell id="jMVin0_qPQL34S8nM-Jz-372" value="bevétel" style="ellipse;whiteSpace=wrap;html=1;" vertex="1" parent="1">
          <mxGeometry x="1191" y="770" width="100" height="50" as="geometry" />
        </mxCell>
        <mxCell id="jMVin0_qPQL34S8nM-Jz-373" value="fesztivál" style="strokeWidth=2;html=1;shape=mxgraph.flowchart.decision;whiteSpace=wrap;" vertex="1" parent="1">
          <mxGeometry x="1320" y="750" width="70" height="90" as="geometry" />
        </mxCell>
        <mxCell id="jMVin0_qPQL34S8nM-Jz-374" value="" style="endArrow=none;html=1;rounded=0;entryX=0.95;entryY=0.699;entryDx=0;entryDy=0;entryPerimeter=0;" edge="1" parent="1" source="jMVin0_qPQL34S8nM-Jz-372" target="jMVin0_qPQL34S8nM-Jz-354">
          <mxGeometry width="50" height="50" relative="1" as="geometry">
            <mxPoint x="1120" y="830" as="sourcePoint" />
            <mxPoint x="1120" y="870" as="targetPoint" />
          </mxGeometry>
        </mxCell>
        <mxCell id="jMVin0_qPQL34S8nM-Jz-375" value="" style="endArrow=none;html=1;rounded=0;exitX=0.292;exitY=0.202;exitDx=0;exitDy=0;exitPerimeter=0;entryX=1.001;entryY=0.375;entryDx=0;entryDy=0;entryPerimeter=0;" edge="1" parent="1" source="jMVin0_qPQL34S8nM-Jz-373" target="jMVin0_qPQL34S8nM-Jz-354">
          <mxGeometry width="50" height="50" relative="1" as="geometry">
            <mxPoint x="1130" y="840" as="sourcePoint" />
            <mxPoint x="1130" y="880" as="targetPoint" />
          </mxGeometry>
        </mxCell>
        <mxCell id="jMVin0_qPQL34S8nM-Jz-376" value="" style="endArrow=none;html=1;rounded=0;exitX=0.5;exitY=1;exitDx=0;exitDy=0;entryX=0.5;entryY=0;entryDx=0;entryDy=0;" edge="1" parent="1" source="jMVin0_qPQL34S8nM-Jz-372" target="jMVin0_qPQL34S8nM-Jz-377">
          <mxGeometry width="50" height="50" relative="1" as="geometry">
            <mxPoint x="1140" y="850" as="sourcePoint" />
            <mxPoint x="1140" y="890" as="targetPoint" />
          </mxGeometry>
        </mxCell>
        <mxCell id="jMVin0_qPQL34S8nM-Jz-377" value="" style="rounded=0;whiteSpace=wrap;html=1;" vertex="1" parent="1">
          <mxGeometry x="1216" y="860" width="50" height="60" as="geometry" />
        </mxCell>
        <mxCell id="jMVin0_qPQL34S8nM-Jz-378" value="Fellépő" style="ellipse;shape=doubleEllipse;margin=3;whiteSpace=wrap;html=1;align=center;" vertex="1" parent="1">
          <mxGeometry x="1760" y="540" width="130" height="50" as="geometry" />
        </mxCell>
        <mxCell id="jMVin0_qPQL34S8nM-Jz-379" value="név" style="ellipse;whiteSpace=wrap;html=1;" vertex="1" parent="1">
          <mxGeometry x="1650" y="750" width="100" height="50" as="geometry" />
        </mxCell>
        <mxCell id="jMVin0_qPQL34S8nM-Jz-380" value="ország" style="ellipse;whiteSpace=wrap;html=1;" vertex="1" parent="1">
          <mxGeometry x="1780" y="750" width="100" height="50" as="geometry" />
        </mxCell>
        <mxCell id="jMVin0_qPQL34S8nM-Jz-381" value="díj" style="ellipse;whiteSpace=wrap;html=1;" vertex="1" parent="1">
          <mxGeometry x="1900" y="750" width="100" height="50" as="geometry" />
        </mxCell>
        <mxCell id="jMVin0_qPQL34S8nM-Jz-382" value="&lt;u&gt;felkód&lt;/u&gt;" style="strokeWidth=2;html=1;shape=mxgraph.flowchart.decision;whiteSpace=wrap;" vertex="1" parent="1">
          <mxGeometry x="1570" y="730" width="60" height="90" as="geometry" />
        </mxCell>
        <mxCell id="jMVin0_qPQL34S8nM-Jz-383" value="" style="endArrow=none;html=1;rounded=0;entryX=1;entryY=1;entryDx=0;entryDy=0;" edge="1" parent="1" source="jMVin0_qPQL34S8nM-Jz-381" target="jMVin0_qPQL34S8nM-Jz-378">
          <mxGeometry width="50" height="50" relative="1" as="geometry">
            <mxPoint x="1900" y="740" as="sourcePoint" />
            <mxPoint x="1950" y="690" as="targetPoint" />
          </mxGeometry>
        </mxCell>
        <mxCell id="jMVin0_qPQL34S8nM-Jz-384" value="" style="endArrow=none;html=1;rounded=0;" edge="1" parent="1" source="jMVin0_qPQL34S8nM-Jz-380" target="jMVin0_qPQL34S8nM-Jz-378">
          <mxGeometry width="50" height="50" relative="1" as="geometry">
            <mxPoint x="1995" y="767" as="sourcePoint" />
            <mxPoint x="1869" y="648" as="targetPoint" />
          </mxGeometry>
        </mxCell>
        <mxCell id="jMVin0_qPQL34S8nM-Jz-385" value="" style="endArrow=none;html=1;rounded=0;entryX=0;entryY=1;entryDx=0;entryDy=0;" edge="1" parent="1" source="jMVin0_qPQL34S8nM-Jz-379" target="jMVin0_qPQL34S8nM-Jz-378">
          <mxGeometry width="50" height="50" relative="1" as="geometry">
            <mxPoint x="2005" y="777" as="sourcePoint" />
            <mxPoint x="1879" y="658" as="targetPoint" />
          </mxGeometry>
        </mxCell>
        <mxCell id="jMVin0_qPQL34S8nM-Jz-386" value="" style="endArrow=none;html=1;rounded=0;exitX=0.883;exitY=0.34;exitDx=0;exitDy=0;exitPerimeter=0;entryX=0;entryY=0.5;entryDx=0;entryDy=0;" edge="1" parent="1" source="jMVin0_qPQL34S8nM-Jz-382" target="jMVin0_qPQL34S8nM-Jz-378">
          <mxGeometry width="50" height="50" relative="1" as="geometry">
            <mxPoint x="2015" y="787" as="sourcePoint" />
            <mxPoint x="1889" y="668" as="targetPoint" />
          </mxGeometry>
        </mxCell>
        <mxCell id="jMVin0_qPQL34S8nM-Jz-387" value="" style="rounded=0;whiteSpace=wrap;html=1;" vertex="1" parent="1">
          <mxGeometry x="1670" y="840" width="50" height="60" as="geometry" />
        </mxCell>
        <mxCell id="jMVin0_qPQL34S8nM-Jz-388" value="" style="rounded=0;whiteSpace=wrap;html=1;" vertex="1" parent="1">
          <mxGeometry x="1925" y="840" width="50" height="60" as="geometry" />
        </mxCell>
        <mxCell id="jMVin0_qPQL34S8nM-Jz-389" value="" style="endArrow=none;html=1;rounded=0;entryX=0.5;entryY=0;entryDx=0;entryDy=0;" edge="1" parent="1" target="jMVin0_qPQL34S8nM-Jz-387">
          <mxGeometry width="50" height="50" relative="1" as="geometry">
            <mxPoint x="1695" y="800" as="sourcePoint" />
            <mxPoint x="1950" y="670" as="targetPoint" />
          </mxGeometry>
        </mxCell>
        <mxCell id="jMVin0_qPQL34S8nM-Jz-390" value="" style="endArrow=none;html=1;rounded=0;exitX=0.5;exitY=1;exitDx=0;exitDy=0;" edge="1" parent="1" source="jMVin0_qPQL34S8nM-Jz-381" target="jMVin0_qPQL34S8nM-Jz-388">
          <mxGeometry width="50" height="50" relative="1" as="geometry">
            <mxPoint x="1900" y="720" as="sourcePoint" />
            <mxPoint x="1950" y="670" as="targetPoint" />
          </mxGeometry>
        </mxCell>
        <mxCell id="jMVin0_qPQL34S8nM-Jz-391" value="" style="rounded=0;whiteSpace=wrap;html=1;" vertex="1" parent="1">
          <mxGeometry x="1800" y="840" width="50" height="60" as="geometry" />
        </mxCell>
        <mxCell id="jMVin0_qPQL34S8nM-Jz-392" value="" style="endArrow=none;html=1;rounded=0;entryX=0.5;entryY=0;entryDx=0;entryDy=0;exitX=0.465;exitY=0.962;exitDx=0;exitDy=0;exitPerimeter=0;" edge="1" parent="1" target="jMVin0_qPQL34S8nM-Jz-391" source="jMVin0_qPQL34S8nM-Jz-380">
          <mxGeometry width="50" height="50" relative="1" as="geometry">
            <mxPoint x="1825" y="810" as="sourcePoint" />
            <mxPoint x="1960" y="850" as="targetPoint" />
          </mxGeometry>
        </mxCell>
        <mxCell id="jMVin0_qPQL34S8nM-Jz-394" value="fesztivál" style="strokeWidth=2;html=1;shape=mxgraph.flowchart.decision;whiteSpace=wrap;" vertex="1" parent="1">
          <mxGeometry x="2020" y="730" width="70" height="90" as="geometry" />
        </mxCell>
        <mxCell id="jMVin0_qPQL34S8nM-Jz-396" value="" style="endArrow=none;html=1;rounded=0;exitX=0.292;exitY=0.202;exitDx=0;exitDy=0;exitPerimeter=0;entryX=0.95;entryY=0.775;entryDx=0;entryDy=0;entryPerimeter=0;" edge="1" parent="1" source="jMVin0_qPQL34S8nM-Jz-394" target="jMVin0_qPQL34S8nM-Jz-378">
          <mxGeometry width="50" height="50" relative="1" as="geometry">
            <mxPoint x="1970" y="820" as="sourcePoint" />
            <mxPoint x="1880" y="545" as="targetPoint" />
          </mxGeometry>
        </mxCell>
        <mxCell id="jMVin0_qPQL34S8nM-Jz-399" value="" style="endArrow=none;dashed=1;html=1;dashPattern=1 3;strokeWidth=2;rounded=0;entryX=0.903;entryY=0.602;entryDx=0;entryDy=0;entryPerimeter=0;exitX=0.113;exitY=0.607;exitDx=0;exitDy=0;exitPerimeter=0;" edge="1" parent="1" source="jMVin0_qPQL34S8nM-Jz-373" target="jMVin0_qPQL34S8nM-Jz-373">
          <mxGeometry width="50" height="50" relative="1" as="geometry">
            <mxPoint x="1220" y="700" as="sourcePoint" />
            <mxPoint x="1270" y="650" as="targetPoint" />
          </mxGeometry>
        </mxCell>
        <mxCell id="jMVin0_qPQL34S8nM-Jz-400" value="" style="endArrow=none;dashed=1;html=1;dashPattern=1 3;strokeWidth=2;rounded=0;entryX=0.903;entryY=0.602;entryDx=0;entryDy=0;entryPerimeter=0;exitX=0.113;exitY=0.607;exitDx=0;exitDy=0;exitPerimeter=0;" edge="1" parent="1">
          <mxGeometry width="50" height="50" relative="1" as="geometry">
            <mxPoint x="2027.5" y="781" as="sourcePoint" />
            <mxPoint x="2082.5" y="780" as="targetPoint" />
          </mxGeometry>
        </mxCell>
        <mxCell id="jMVin0_qPQL34S8nM-Jz-417" value="Alkalmazott" style="ellipse;shape=doubleEllipse;margin=3;whiteSpace=wrap;html=1;align=center;" vertex="1" parent="1">
          <mxGeometry x="2425" y="526.62" width="130" height="50" as="geometry" />
        </mxCell>
        <mxCell id="jMVin0_qPQL34S8nM-Jz-418" value="név" style="ellipse;whiteSpace=wrap;html=1;" vertex="1" parent="1">
          <mxGeometry x="2310" y="750" width="100" height="50" as="geometry" />
        </mxCell>
        <mxCell id="jMVin0_qPQL34S8nM-Jz-420" value="díj" style="ellipse;whiteSpace=wrap;html=1;" vertex="1" parent="1">
          <mxGeometry x="2560" y="750" width="100" height="50" as="geometry" />
        </mxCell>
        <mxCell id="jMVin0_qPQL34S8nM-Jz-421" value="&lt;u&gt;akód&lt;/u&gt;" style="strokeWidth=2;html=1;shape=mxgraph.flowchart.decision;whiteSpace=wrap;" vertex="1" parent="1">
          <mxGeometry x="2230" y="730" width="60" height="90" as="geometry" />
        </mxCell>
        <mxCell id="jMVin0_qPQL34S8nM-Jz-422" value="" style="endArrow=none;html=1;rounded=0;entryX=1;entryY=1;entryDx=0;entryDy=0;" edge="1" parent="1" source="jMVin0_qPQL34S8nM-Jz-420" target="jMVin0_qPQL34S8nM-Jz-417">
          <mxGeometry width="50" height="50" relative="1" as="geometry">
            <mxPoint x="2560" y="740" as="sourcePoint" />
            <mxPoint x="2610" y="690" as="targetPoint" />
          </mxGeometry>
        </mxCell>
        <mxCell id="jMVin0_qPQL34S8nM-Jz-423" value="" style="endArrow=none;html=1;rounded=0;" edge="1" parent="1" target="jMVin0_qPQL34S8nM-Jz-417">
          <mxGeometry width="50" height="50" relative="1" as="geometry">
            <mxPoint x="2489.5349038431004" y="750.0010815666533" as="sourcePoint" />
            <mxPoint x="2529" y="648" as="targetPoint" />
          </mxGeometry>
        </mxCell>
        <mxCell id="jMVin0_qPQL34S8nM-Jz-424" value="" style="endArrow=none;html=1;rounded=0;entryX=0;entryY=1;entryDx=0;entryDy=0;" edge="1" parent="1" source="jMVin0_qPQL34S8nM-Jz-418" target="jMVin0_qPQL34S8nM-Jz-417">
          <mxGeometry width="50" height="50" relative="1" as="geometry">
            <mxPoint x="2665" y="777" as="sourcePoint" />
            <mxPoint x="2539" y="658" as="targetPoint" />
          </mxGeometry>
        </mxCell>
        <mxCell id="jMVin0_qPQL34S8nM-Jz-425" value="" style="endArrow=none;html=1;rounded=0;exitX=0.883;exitY=0.34;exitDx=0;exitDy=0;exitPerimeter=0;entryX=0;entryY=0.5;entryDx=0;entryDy=0;" edge="1" parent="1" source="jMVin0_qPQL34S8nM-Jz-421" target="jMVin0_qPQL34S8nM-Jz-417">
          <mxGeometry width="50" height="50" relative="1" as="geometry">
            <mxPoint x="2675" y="787" as="sourcePoint" />
            <mxPoint x="2549" y="668" as="targetPoint" />
          </mxGeometry>
        </mxCell>
        <mxCell id="jMVin0_qPQL34S8nM-Jz-426" value="" style="rounded=0;whiteSpace=wrap;html=1;" vertex="1" parent="1">
          <mxGeometry x="2330" y="840" width="50" height="60" as="geometry" />
        </mxCell>
        <mxCell id="jMVin0_qPQL34S8nM-Jz-427" value="" style="rounded=0;whiteSpace=wrap;html=1;" vertex="1" parent="1">
          <mxGeometry x="2585" y="840" width="50" height="60" as="geometry" />
        </mxCell>
        <mxCell id="jMVin0_qPQL34S8nM-Jz-428" value="" style="endArrow=none;html=1;rounded=0;entryX=0.5;entryY=0;entryDx=0;entryDy=0;" edge="1" parent="1" target="jMVin0_qPQL34S8nM-Jz-426">
          <mxGeometry width="50" height="50" relative="1" as="geometry">
            <mxPoint x="2355" y="800" as="sourcePoint" />
            <mxPoint x="2610" y="670" as="targetPoint" />
          </mxGeometry>
        </mxCell>
        <mxCell id="jMVin0_qPQL34S8nM-Jz-429" value="" style="endArrow=none;html=1;rounded=0;exitX=0.5;exitY=1;exitDx=0;exitDy=0;" edge="1" parent="1" source="jMVin0_qPQL34S8nM-Jz-420" target="jMVin0_qPQL34S8nM-Jz-427">
          <mxGeometry width="50" height="50" relative="1" as="geometry">
            <mxPoint x="2560" y="720" as="sourcePoint" />
            <mxPoint x="2610" y="670" as="targetPoint" />
          </mxGeometry>
        </mxCell>
        <mxCell id="jMVin0_qPQL34S8nM-Jz-430" value="" style="rounded=0;whiteSpace=wrap;html=1;" vertex="1" parent="1">
          <mxGeometry x="2460" y="840" width="50" height="60" as="geometry" />
        </mxCell>
        <mxCell id="jMVin0_qPQL34S8nM-Jz-431" value="" style="endArrow=none;html=1;rounded=0;entryX=0.5;entryY=0;entryDx=0;entryDy=0;exitX=0.465;exitY=0.962;exitDx=0;exitDy=0;exitPerimeter=0;" edge="1" parent="1" target="jMVin0_qPQL34S8nM-Jz-430">
          <mxGeometry width="50" height="50" relative="1" as="geometry">
            <mxPoint x="2486.5" y="798.0999999999997" as="sourcePoint" />
            <mxPoint x="2620" y="850" as="targetPoint" />
          </mxGeometry>
        </mxCell>
        <mxCell id="jMVin0_qPQL34S8nM-Jz-432" value="munkahely" style="strokeWidth=2;html=1;shape=mxgraph.flowchart.decision;whiteSpace=wrap;" vertex="1" parent="1">
          <mxGeometry x="2680" y="730" width="70" height="90" as="geometry" />
        </mxCell>
        <mxCell id="jMVin0_qPQL34S8nM-Jz-433" value="" style="endArrow=none;html=1;rounded=0;exitX=0.292;exitY=0.202;exitDx=0;exitDy=0;exitPerimeter=0;entryX=0.95;entryY=0.775;entryDx=0;entryDy=0;entryPerimeter=0;" edge="1" parent="1" source="jMVin0_qPQL34S8nM-Jz-432" target="jMVin0_qPQL34S8nM-Jz-417">
          <mxGeometry width="50" height="50" relative="1" as="geometry">
            <mxPoint x="2630" y="820" as="sourcePoint" />
            <mxPoint x="2540" y="545" as="targetPoint" />
          </mxGeometry>
        </mxCell>
        <mxCell id="jMVin0_qPQL34S8nM-Jz-434" value="" style="endArrow=none;dashed=1;html=1;dashPattern=1 3;strokeWidth=2;rounded=0;entryX=0.903;entryY=0.602;entryDx=0;entryDy=0;entryPerimeter=0;exitX=0.113;exitY=0.607;exitDx=0;exitDy=0;exitPerimeter=0;" edge="1" parent="1">
          <mxGeometry width="50" height="50" relative="1" as="geometry">
            <mxPoint x="2687.5" y="781" as="sourcePoint" />
            <mxPoint x="2742.5" y="780" as="targetPoint" />
          </mxGeometry>
        </mxCell>
        <mxCell id="jMVin0_qPQL34S8nM-Jz-435" value="műszak" style="ellipse;shape=doubleEllipse;margin=3;whiteSpace=wrap;html=1;align=center;" vertex="1" parent="1">
          <mxGeometry x="2430" y="750" width="110" height="50" as="geometry" />
        </mxCell>
        <mxCell id="jMVin0_qPQL34S8nM-Jz-457" value="" style="group" vertex="1" connectable="0" parent="1">
          <mxGeometry x="2810" y="526.62" width="560" height="370" as="geometry" />
        </mxCell>
        <mxCell id="jMVin0_qPQL34S8nM-Jz-458" value="név" style="ellipse;whiteSpace=wrap;html=1;container=0;" vertex="1" parent="jMVin0_qPQL34S8nM-Jz-457">
          <mxGeometry x="90" y="150" width="120" height="60" as="geometry" />
        </mxCell>
        <mxCell id="jMVin0_qPQL34S8nM-Jz-459" value="" style="ellipse;whiteSpace=wrap;html=1;container=0;" vertex="1" parent="jMVin0_qPQL34S8nM-Jz-457">
          <mxGeometry x="220" y="150" width="120" height="60" as="geometry" />
        </mxCell>
        <mxCell id="jMVin0_qPQL34S8nM-Jz-460" value="cég" style="ellipse;whiteSpace=wrap;html=1;container=0;" vertex="1" parent="jMVin0_qPQL34S8nM-Jz-457">
          <mxGeometry x="350" y="150" width="120" height="60" as="geometry" />
        </mxCell>
        <mxCell id="jMVin0_qPQL34S8nM-Jz-461" value="&lt;u&gt;bkód&lt;/u&gt;" style="rhombus;whiteSpace=wrap;html=1;container=0;" vertex="1" parent="jMVin0_qPQL34S8nM-Jz-457">
          <mxGeometry y="140" width="80" height="80" as="geometry" />
        </mxCell>
        <mxCell id="jMVin0_qPQL34S8nM-Jz-462" value="fesztivál" style="rhombus;whiteSpace=wrap;html=1;container=0;" vertex="1" parent="jMVin0_qPQL34S8nM-Jz-457">
          <mxGeometry x="480" y="140" width="80" height="80" as="geometry" />
        </mxCell>
        <mxCell id="jMVin0_qPQL34S8nM-Jz-463" value="" style="endArrow=none;html=1;rounded=0;exitX=0.5;exitY=0;exitDx=0;exitDy=0;entryX=0.5;entryY=1;entryDx=0;entryDy=0;" edge="1" parent="jMVin0_qPQL34S8nM-Jz-457" source="jMVin0_qPQL34S8nM-Jz-459" target="jMVin0_qPQL34S8nM-Jz-472">
          <mxGeometry width="50" height="50" relative="1" as="geometry">
            <mxPoint x="280" y="-30" as="sourcePoint" />
            <mxPoint x="280" y="90" as="targetPoint" />
          </mxGeometry>
        </mxCell>
        <mxCell id="jMVin0_qPQL34S8nM-Jz-464" value="" style="endArrow=none;html=1;rounded=0;exitX=0.5;exitY=0;exitDx=0;exitDy=0;entryX=0;entryY=1;entryDx=0;entryDy=0;" edge="1" parent="jMVin0_qPQL34S8nM-Jz-457" source="jMVin0_qPQL34S8nM-Jz-458" target="jMVin0_qPQL34S8nM-Jz-472">
          <mxGeometry width="50" height="50" relative="1" as="geometry">
            <mxPoint x="280" y="-30" as="sourcePoint" />
            <mxPoint x="330" y="-80" as="targetPoint" />
          </mxGeometry>
        </mxCell>
        <mxCell id="jMVin0_qPQL34S8nM-Jz-465" value="" style="endArrow=none;html=1;rounded=0;exitX=0.5;exitY=0;exitDx=0;exitDy=0;entryX=0;entryY=0.5;entryDx=0;entryDy=0;" edge="1" parent="jMVin0_qPQL34S8nM-Jz-457" source="jMVin0_qPQL34S8nM-Jz-461" target="jMVin0_qPQL34S8nM-Jz-472">
          <mxGeometry width="50" height="50" relative="1" as="geometry">
            <mxPoint x="280" y="-30" as="sourcePoint" />
            <mxPoint x="330" y="-80" as="targetPoint" />
          </mxGeometry>
        </mxCell>
        <mxCell id="jMVin0_qPQL34S8nM-Jz-466" value="" style="endArrow=none;html=1;rounded=0;exitX=0.5;exitY=0;exitDx=0;exitDy=0;entryX=1;entryY=0.5;entryDx=0;entryDy=0;" edge="1" parent="jMVin0_qPQL34S8nM-Jz-457" source="jMVin0_qPQL34S8nM-Jz-462" target="jMVin0_qPQL34S8nM-Jz-472">
          <mxGeometry width="50" height="50" relative="1" as="geometry">
            <mxPoint x="160" y="160" as="sourcePoint" />
            <mxPoint x="390" y="30" as="targetPoint" />
          </mxGeometry>
        </mxCell>
        <mxCell id="jMVin0_qPQL34S8nM-Jz-467" value="" style="endArrow=none;html=1;rounded=0;exitX=0.5;exitY=0;exitDx=0;exitDy=0;entryX=1;entryY=1;entryDx=0;entryDy=0;" edge="1" parent="jMVin0_qPQL34S8nM-Jz-457" source="jMVin0_qPQL34S8nM-Jz-460" target="jMVin0_qPQL34S8nM-Jz-472">
          <mxGeometry width="50" height="50" relative="1" as="geometry">
            <mxPoint x="170" y="170" as="sourcePoint" />
            <mxPoint x="257" y="71" as="targetPoint" />
          </mxGeometry>
        </mxCell>
        <mxCell id="jMVin0_qPQL34S8nM-Jz-468" value="" style="endArrow=none;html=1;rounded=0;exitX=0;exitY=0.5;exitDx=0;exitDy=0;entryX=0.5;entryY=1;entryDx=0;entryDy=0;" edge="1" parent="jMVin0_qPQL34S8nM-Jz-457" source="jMVin0_qPQL34S8nM-Jz-474" target="jMVin0_qPQL34S8nM-Jz-458">
          <mxGeometry width="50" height="50" relative="1" as="geometry">
            <mxPoint x="150" y="250" as="sourcePoint" />
            <mxPoint x="420" y="150" as="targetPoint" />
          </mxGeometry>
        </mxCell>
        <mxCell id="jMVin0_qPQL34S8nM-Jz-469" value="" style="endArrow=none;html=1;rounded=0;exitX=0;exitY=0.5;exitDx=0;exitDy=0;entryX=0.5;entryY=1;entryDx=0;entryDy=0;" edge="1" parent="jMVin0_qPQL34S8nM-Jz-457" source="jMVin0_qPQL34S8nM-Jz-475" target="jMVin0_qPQL34S8nM-Jz-459">
          <mxGeometry width="50" height="50" relative="1" as="geometry">
            <mxPoint x="280" y="250" as="sourcePoint" />
            <mxPoint x="160" y="220" as="targetPoint" />
          </mxGeometry>
        </mxCell>
        <mxCell id="jMVin0_qPQL34S8nM-Jz-470" value="" style="endArrow=none;html=1;rounded=0;exitX=0;exitY=0.5;exitDx=0;exitDy=0;entryX=0.5;entryY=1;entryDx=0;entryDy=0;" edge="1" parent="jMVin0_qPQL34S8nM-Jz-457" source="jMVin0_qPQL34S8nM-Jz-476" target="jMVin0_qPQL34S8nM-Jz-460">
          <mxGeometry width="50" height="50" relative="1" as="geometry">
            <mxPoint x="410" y="250" as="sourcePoint" />
            <mxPoint x="290" y="220" as="targetPoint" />
          </mxGeometry>
        </mxCell>
        <mxCell id="jMVin0_qPQL34S8nM-Jz-471" value="ital" style="ellipse;whiteSpace=wrap;html=1;container=0;" vertex="1" parent="jMVin0_qPQL34S8nM-Jz-457">
          <mxGeometry x="225" y="155" width="110" height="50" as="geometry" />
        </mxCell>
        <mxCell id="jMVin0_qPQL34S8nM-Jz-472" value="" style="ellipse;whiteSpace=wrap;html=1;container=0;" vertex="1" parent="jMVin0_qPQL34S8nM-Jz-457">
          <mxGeometry x="220" width="120" height="60" as="geometry" />
        </mxCell>
        <mxCell id="jMVin0_qPQL34S8nM-Jz-473" value="Bár" style="ellipse;whiteSpace=wrap;html=1;container=0;" vertex="1" parent="jMVin0_qPQL34S8nM-Jz-457">
          <mxGeometry x="225" y="5" width="110" height="50" as="geometry" />
        </mxCell>
        <mxCell id="jMVin0_qPQL34S8nM-Jz-474" value="" style="rounded=0;whiteSpace=wrap;html=1;rotation=90;container=0;" vertex="1" parent="jMVin0_qPQL34S8nM-Jz-457">
          <mxGeometry x="125" y="322.5" width="50" height="40" as="geometry" />
        </mxCell>
        <mxCell id="jMVin0_qPQL34S8nM-Jz-475" value="" style="rounded=0;whiteSpace=wrap;html=1;rotation=90;container=0;" vertex="1" parent="jMVin0_qPQL34S8nM-Jz-457">
          <mxGeometry x="255" y="322.5" width="50" height="40" as="geometry" />
        </mxCell>
        <mxCell id="jMVin0_qPQL34S8nM-Jz-476" value="" style="rounded=0;whiteSpace=wrap;html=1;rotation=90;container=0;" vertex="1" parent="jMVin0_qPQL34S8nM-Jz-457">
          <mxGeometry x="385" y="325" width="50" height="40" as="geometry" />
        </mxCell>
        <mxCell id="jMVin0_qPQL34S8nM-Jz-477" value="" style="endArrow=none;dashed=1;html=1;rounded=0;" edge="1" parent="jMVin0_qPQL34S8nM-Jz-457">
          <mxGeometry width="50" height="50" relative="1" as="geometry">
            <mxPoint x="485" y="184.69999999999993" as="sourcePoint" />
            <mxPoint x="555" y="184.69999999999993" as="targetPoint" />
            <Array as="points">
              <mxPoint x="555" y="184.28999999999996" />
            </Array>
          </mxGeometry>
        </mxCell>
        <mxCell id="jMVin0_qPQL34S8nM-Jz-534" value="" style="group" vertex="1" connectable="0" parent="1">
          <mxGeometry x="3460" y="540" width="455" height="370" as="geometry" />
        </mxCell>
        <mxCell id="jMVin0_qPQL34S8nM-Jz-535" value="nyelvtudás" style="rhombus;whiteSpace=wrap;html=1;container=0;" vertex="1" parent="jMVin0_qPQL34S8nM-Jz-534">
          <mxGeometry x="375" y="144.38" width="80" height="80" as="geometry" />
        </mxCell>
        <mxCell id="jMVin0_qPQL34S8nM-Jz-536" value="kérdező" style="ellipse;whiteSpace=wrap;html=1;container=0;" vertex="1" parent="jMVin0_qPQL34S8nM-Jz-534">
          <mxGeometry x="115" y="150" width="120" height="60" as="geometry" />
        </mxCell>
        <mxCell id="jMVin0_qPQL34S8nM-Jz-537" value="&lt;u&gt;kkód&lt;/u&gt;" style="rhombus;whiteSpace=wrap;html=1;container=0;" vertex="1" parent="jMVin0_qPQL34S8nM-Jz-534">
          <mxGeometry y="140" width="80" height="80" as="geometry" />
        </mxCell>
        <mxCell id="jMVin0_qPQL34S8nM-Jz-538" value="" style="endArrow=none;html=1;rounded=0;exitX=0.5;exitY=0;exitDx=0;exitDy=0;entryX=0.736;entryY=0.942;entryDx=0;entryDy=0;entryPerimeter=0;" edge="1" parent="jMVin0_qPQL34S8nM-Jz-534" target="jMVin0_qPQL34S8nM-Jz-544">
          <mxGeometry width="50" height="50" relative="1" as="geometry">
            <mxPoint x="320" y="160" as="sourcePoint" />
            <mxPoint x="160" y="105" as="targetPoint" />
          </mxGeometry>
        </mxCell>
        <mxCell id="jMVin0_qPQL34S8nM-Jz-539" value="" style="endArrow=none;html=1;rounded=0;exitX=0.5;exitY=0;exitDx=0;exitDy=0;entryX=0.5;entryY=1;entryDx=0;entryDy=0;" edge="1" parent="jMVin0_qPQL34S8nM-Jz-534" source="jMVin0_qPQL34S8nM-Jz-536" target="jMVin0_qPQL34S8nM-Jz-545">
          <mxGeometry width="50" height="50" relative="1" as="geometry">
            <mxPoint x="160" y="-15" as="sourcePoint" />
            <mxPoint x="210" y="-65" as="targetPoint" />
          </mxGeometry>
        </mxCell>
        <mxCell id="jMVin0_qPQL34S8nM-Jz-540" value="" style="endArrow=none;html=1;rounded=0;exitX=0.5;exitY=0;exitDx=0;exitDy=0;entryX=0;entryY=1;entryDx=0;entryDy=0;" edge="1" parent="jMVin0_qPQL34S8nM-Jz-534" source="jMVin0_qPQL34S8nM-Jz-537" target="jMVin0_qPQL34S8nM-Jz-544">
          <mxGeometry width="50" height="50" relative="1" as="geometry">
            <mxPoint x="160" y="-15" as="sourcePoint" />
            <mxPoint x="210" y="-65" as="targetPoint" />
          </mxGeometry>
        </mxCell>
        <mxCell id="jMVin0_qPQL34S8nM-Jz-541" value="" style="rounded=0;whiteSpace=wrap;html=1;rotation=90;container=0;" vertex="1" parent="jMVin0_qPQL34S8nM-Jz-534">
          <mxGeometry x="150" y="325" width="50" height="40" as="geometry" />
        </mxCell>
        <mxCell id="jMVin0_qPQL34S8nM-Jz-542" value="" style="endArrow=none;html=1;rounded=0;exitX=0;exitY=0.5;exitDx=0;exitDy=0;entryX=0.5;entryY=1;entryDx=0;entryDy=0;" edge="1" parent="jMVin0_qPQL34S8nM-Jz-534" source="jMVin0_qPQL34S8nM-Jz-541" target="jMVin0_qPQL34S8nM-Jz-536">
          <mxGeometry width="50" height="50" relative="1" as="geometry">
            <mxPoint x="250" y="215" as="sourcePoint" />
            <mxPoint x="300" y="165" as="targetPoint" />
          </mxGeometry>
        </mxCell>
        <mxCell id="jMVin0_qPQL34S8nM-Jz-543" value="" style="group" vertex="1" connectable="0" parent="jMVin0_qPQL34S8nM-Jz-534">
          <mxGeometry x="115" width="120" height="60" as="geometry" />
        </mxCell>
        <mxCell id="jMVin0_qPQL34S8nM-Jz-544" value="" style="ellipse;whiteSpace=wrap;html=1;container=0;" vertex="1" parent="jMVin0_qPQL34S8nM-Jz-543">
          <mxGeometry width="120" height="60" as="geometry" />
        </mxCell>
        <mxCell id="jMVin0_qPQL34S8nM-Jz-545" value="Közvélemény" style="ellipse;whiteSpace=wrap;html=1;container=0;" vertex="1" parent="jMVin0_qPQL34S8nM-Jz-543">
          <mxGeometry x="5" y="5" width="110" height="50" as="geometry" />
        </mxCell>
        <mxCell id="jMVin0_qPQL34S8nM-Jz-546" value="résztvevő" style="rhombus;whiteSpace=wrap;html=1;container=0;" vertex="1" parent="jMVin0_qPQL34S8nM-Jz-534">
          <mxGeometry x="275" y="144.38" width="80" height="80" as="geometry" />
        </mxCell>
        <mxCell id="jMVin0_qPQL34S8nM-Jz-547" value="" style="endArrow=none;html=1;rounded=0;entryX=1;entryY=1;entryDx=0;entryDy=0;exitX=0.5;exitY=0;exitDx=0;exitDy=0;" edge="1" parent="jMVin0_qPQL34S8nM-Jz-534" source="jMVin0_qPQL34S8nM-Jz-535" target="jMVin0_qPQL34S8nM-Jz-544">
          <mxGeometry width="50" height="50" relative="1" as="geometry">
            <mxPoint x="395" y="180" as="sourcePoint" />
            <mxPoint x="445" y="130" as="targetPoint" />
          </mxGeometry>
        </mxCell>
        <mxCell id="jMVin0_qPQL34S8nM-Jz-548" value="" style="endArrow=none;dashed=1;html=1;rounded=0;" edge="1" parent="jMVin0_qPQL34S8nM-Jz-534">
          <mxGeometry width="50" height="50" relative="1" as="geometry">
            <mxPoint x="285" y="192.19999999999993" as="sourcePoint" />
            <mxPoint x="355" y="192.19999999999993" as="targetPoint" />
            <Array as="points">
              <mxPoint x="355" y="191.78999999999996" />
            </Array>
          </mxGeometry>
        </mxCell>
        <mxCell id="jMVin0_qPQL34S8nM-Jz-549" value="" style="endArrow=none;dashed=1;html=1;rounded=0;" edge="1" parent="jMVin0_qPQL34S8nM-Jz-534">
          <mxGeometry width="50" height="50" relative="1" as="geometry">
            <mxPoint x="380" y="191.90999999999997" as="sourcePoint" />
            <mxPoint x="450" y="191.90999999999997" as="targetPoint" />
            <Array as="points">
              <mxPoint x="450" y="191.5" />
            </Array>
          </mxGeometry>
        </mxCell>
        <mxCell id="jMVin0_qPQL34S8nM-Jz-550" value="" style="group" vertex="1" connectable="0" parent="1">
          <mxGeometry x="4030" y="540" width="380" height="376.75" as="geometry" />
        </mxCell>
        <mxCell id="jMVin0_qPQL34S8nM-Jz-551" value="nyelv" style="ellipse;whiteSpace=wrap;html=1;container=0;" vertex="1" parent="jMVin0_qPQL34S8nM-Jz-550">
          <mxGeometry x="115" y="159.88" width="120" height="60" as="geometry" />
        </mxCell>
        <mxCell id="jMVin0_qPQL34S8nM-Jz-552" value="szint" style="ellipse;whiteSpace=wrap;html=1;container=0;" vertex="1" parent="jMVin0_qPQL34S8nM-Jz-550">
          <mxGeometry x="260" y="160.5" width="120" height="60" as="geometry" />
        </mxCell>
        <mxCell id="jMVin0_qPQL34S8nM-Jz-553" value="&lt;u&gt;nykód&lt;/u&gt;" style="rhombus;whiteSpace=wrap;html=1;container=0;" vertex="1" parent="jMVin0_qPQL34S8nM-Jz-550">
          <mxGeometry y="148" width="80" height="80" as="geometry" />
        </mxCell>
        <mxCell id="jMVin0_qPQL34S8nM-Jz-554" value="" style="endArrow=none;html=1;rounded=0;exitX=0.5;exitY=0;exitDx=0;exitDy=0;entryX=1;entryY=1;entryDx=0;entryDy=0;" edge="1" parent="jMVin0_qPQL34S8nM-Jz-550" source="jMVin0_qPQL34S8nM-Jz-552" target="jMVin0_qPQL34S8nM-Jz-562">
          <mxGeometry width="50" height="50" relative="1" as="geometry">
            <mxPoint x="160" y="-7" as="sourcePoint" />
            <mxPoint x="160" y="113" as="targetPoint" />
          </mxGeometry>
        </mxCell>
        <mxCell id="jMVin0_qPQL34S8nM-Jz-555" value="" style="endArrow=none;html=1;rounded=0;exitX=0.5;exitY=0;exitDx=0;exitDy=0;entryX=0.5;entryY=1;entryDx=0;entryDy=0;" edge="1" parent="jMVin0_qPQL34S8nM-Jz-550" source="jMVin0_qPQL34S8nM-Jz-551" target="jMVin0_qPQL34S8nM-Jz-562">
          <mxGeometry width="50" height="50" relative="1" as="geometry">
            <mxPoint x="160" y="-7" as="sourcePoint" />
            <mxPoint x="210" y="-57" as="targetPoint" />
          </mxGeometry>
        </mxCell>
        <mxCell id="jMVin0_qPQL34S8nM-Jz-556" value="" style="endArrow=none;html=1;rounded=0;exitX=0.5;exitY=0;exitDx=0;exitDy=0;entryX=0;entryY=1;entryDx=0;entryDy=0;" edge="1" parent="jMVin0_qPQL34S8nM-Jz-550" source="jMVin0_qPQL34S8nM-Jz-553" target="jMVin0_qPQL34S8nM-Jz-562">
          <mxGeometry width="50" height="50" relative="1" as="geometry">
            <mxPoint x="160" y="-7" as="sourcePoint" />
            <mxPoint x="210" y="-57" as="targetPoint" />
          </mxGeometry>
        </mxCell>
        <mxCell id="jMVin0_qPQL34S8nM-Jz-557" value="" style="rounded=0;whiteSpace=wrap;html=1;rotation=90;container=0;" vertex="1" parent="jMVin0_qPQL34S8nM-Jz-550">
          <mxGeometry x="150" y="331.75" width="50" height="40" as="geometry" />
        </mxCell>
        <mxCell id="jMVin0_qPQL34S8nM-Jz-558" value="" style="rounded=0;whiteSpace=wrap;html=1;rotation=90;container=0;" vertex="1" parent="jMVin0_qPQL34S8nM-Jz-550">
          <mxGeometry x="295" y="331.75" width="50" height="40" as="geometry" />
        </mxCell>
        <mxCell id="jMVin0_qPQL34S8nM-Jz-559" value="" style="endArrow=none;html=1;rounded=0;exitX=0;exitY=0.5;exitDx=0;exitDy=0;entryX=0.5;entryY=1;entryDx=0;entryDy=0;" edge="1" parent="jMVin0_qPQL34S8nM-Jz-550" source="jMVin0_qPQL34S8nM-Jz-557" target="jMVin0_qPQL34S8nM-Jz-551">
          <mxGeometry width="50" height="50" relative="1" as="geometry">
            <mxPoint x="250" y="223" as="sourcePoint" />
            <mxPoint x="300" y="173" as="targetPoint" />
          </mxGeometry>
        </mxCell>
        <mxCell id="jMVin0_qPQL34S8nM-Jz-560" value="" style="endArrow=none;html=1;rounded=0;exitX=0;exitY=0.5;exitDx=0;exitDy=0;entryX=0.5;entryY=1;entryDx=0;entryDy=0;" edge="1" parent="jMVin0_qPQL34S8nM-Jz-550" source="jMVin0_qPQL34S8nM-Jz-558" target="jMVin0_qPQL34S8nM-Jz-552">
          <mxGeometry width="50" height="50" relative="1" as="geometry">
            <mxPoint x="40" y="283" as="sourcePoint" />
            <mxPoint x="40" y="243" as="targetPoint" />
          </mxGeometry>
        </mxCell>
        <mxCell id="jMVin0_qPQL34S8nM-Jz-561" value="" style="group" vertex="1" connectable="0" parent="jMVin0_qPQL34S8nM-Jz-550">
          <mxGeometry x="115" width="120" height="60" as="geometry" />
        </mxCell>
        <mxCell id="jMVin0_qPQL34S8nM-Jz-562" value="" style="ellipse;whiteSpace=wrap;html=1;container=0;" vertex="1" parent="jMVin0_qPQL34S8nM-Jz-561">
          <mxGeometry width="120" height="60" as="geometry" />
        </mxCell>
        <mxCell id="jMVin0_qPQL34S8nM-Jz-563" value="Nyelvtudás" style="ellipse;whiteSpace=wrap;html=1;container=0;" vertex="1" parent="jMVin0_qPQL34S8nM-Jz-561">
          <mxGeometry x="5" y="5" width="110" height="50" as="geometry" />
        </mxCell>
        <mxCell id="jMVin0_qPQL34S8nM-Jz-564" value="" style="group" vertex="1" connectable="0" parent="1">
          <mxGeometry x="4560" y="540" width="732.5" height="380" as="geometry" />
        </mxCell>
        <mxCell id="jMVin0_qPQL34S8nM-Jz-565" value="házszám" style="ellipse;whiteSpace=wrap;html=1;container=0;" vertex="1" parent="jMVin0_qPQL34S8nM-Jz-564">
          <mxGeometry x="612.5" y="320" width="120" height="60" as="geometry" />
        </mxCell>
        <mxCell id="jMVin0_qPQL34S8nM-Jz-566" value="" style="endArrow=none;html=1;rounded=0;exitX=0.5;exitY=0;exitDx=0;exitDy=0;entryX=1;entryY=1;entryDx=0;entryDy=0;" edge="1" parent="jMVin0_qPQL34S8nM-Jz-564" source="jMVin0_qPQL34S8nM-Jz-565" target="jMVin0_qPQL34S8nM-Jz-569">
          <mxGeometry width="50" height="50" relative="1" as="geometry">
            <mxPoint x="495.5" y="330" as="sourcePoint" />
            <mxPoint x="425.5" y="230" as="targetPoint" />
          </mxGeometry>
        </mxCell>
        <mxCell id="jMVin0_qPQL34S8nM-Jz-567" value="név" style="ellipse;whiteSpace=wrap;html=1;container=0;" vertex="1" parent="jMVin0_qPQL34S8nM-Jz-564">
          <mxGeometry x="103.5" y="150" width="120" height="60" as="geometry" />
        </mxCell>
        <mxCell id="jMVin0_qPQL34S8nM-Jz-568" value="diákigazolvány" style="ellipse;whiteSpace=wrap;html=1;container=0;dashed=1;" vertex="1" parent="jMVin0_qPQL34S8nM-Jz-564">
          <mxGeometry x="240.5" y="150" width="120" height="60" as="geometry" />
        </mxCell>
        <mxCell id="jMVin0_qPQL34S8nM-Jz-569" value="lakcím" style="ellipse;whiteSpace=wrap;html=1;container=0;" vertex="1" parent="jMVin0_qPQL34S8nM-Jz-564">
          <mxGeometry x="482.5" y="150" width="120" height="60" as="geometry" />
        </mxCell>
        <mxCell id="jMVin0_qPQL34S8nM-Jz-570" value="&lt;u&gt;rkód&lt;/u&gt;" style="rhombus;whiteSpace=wrap;html=1;container=0;" vertex="1" parent="jMVin0_qPQL34S8nM-Jz-564">
          <mxGeometry y="140" width="80" height="80" as="geometry" />
        </mxCell>
        <mxCell id="jMVin0_qPQL34S8nM-Jz-571" value="" style="endArrow=none;html=1;rounded=0;exitX=0.5;exitY=0;exitDx=0;exitDy=0;entryX=0.5;entryY=1;entryDx=0;entryDy=0;" edge="1" parent="jMVin0_qPQL34S8nM-Jz-564" source="jMVin0_qPQL34S8nM-Jz-568" target="jMVin0_qPQL34S8nM-Jz-584">
          <mxGeometry width="50" height="50" relative="1" as="geometry">
            <mxPoint x="285.5" y="-20" as="sourcePoint" />
            <mxPoint x="285.5" y="100" as="targetPoint" />
          </mxGeometry>
        </mxCell>
        <mxCell id="jMVin0_qPQL34S8nM-Jz-572" value="" style="endArrow=none;html=1;rounded=0;exitX=0.5;exitY=0;exitDx=0;exitDy=0;entryX=0;entryY=1;entryDx=0;entryDy=0;" edge="1" parent="jMVin0_qPQL34S8nM-Jz-564" source="jMVin0_qPQL34S8nM-Jz-567" target="jMVin0_qPQL34S8nM-Jz-584">
          <mxGeometry width="50" height="50" relative="1" as="geometry">
            <mxPoint x="285.5" y="-20" as="sourcePoint" />
            <mxPoint x="335.5" y="-70" as="targetPoint" />
          </mxGeometry>
        </mxCell>
        <mxCell id="jMVin0_qPQL34S8nM-Jz-573" value="" style="endArrow=none;html=1;rounded=0;exitX=0.5;exitY=0;exitDx=0;exitDy=0;entryX=0;entryY=0.5;entryDx=0;entryDy=0;" edge="1" parent="jMVin0_qPQL34S8nM-Jz-564" source="jMVin0_qPQL34S8nM-Jz-570" target="jMVin0_qPQL34S8nM-Jz-584">
          <mxGeometry width="50" height="50" relative="1" as="geometry">
            <mxPoint x="285.5" y="-20" as="sourcePoint" />
            <mxPoint x="335.5" y="-70" as="targetPoint" />
          </mxGeometry>
        </mxCell>
        <mxCell id="jMVin0_qPQL34S8nM-Jz-574" value="" style="endArrow=none;html=1;rounded=0;exitX=0.5;exitY=0;exitDx=0;exitDy=0;entryX=1;entryY=1;entryDx=0;entryDy=0;" edge="1" parent="jMVin0_qPQL34S8nM-Jz-564" source="jMVin0_qPQL34S8nM-Jz-569" target="jMVin0_qPQL34S8nM-Jz-585">
          <mxGeometry width="50" height="50" relative="1" as="geometry">
            <mxPoint x="175.5" y="180" as="sourcePoint" />
            <mxPoint x="262.5" y="81" as="targetPoint" />
          </mxGeometry>
        </mxCell>
        <mxCell id="jMVin0_qPQL34S8nM-Jz-575" value="" style="rounded=0;whiteSpace=wrap;html=1;rotation=90;container=0;" vertex="1" parent="jMVin0_qPQL34S8nM-Jz-564">
          <mxGeometry x="138.5" y="325" width="50" height="40" as="geometry" />
        </mxCell>
        <mxCell id="jMVin0_qPQL34S8nM-Jz-576" value="" style="rounded=0;whiteSpace=wrap;html=1;rotation=90;container=0;" vertex="1" parent="jMVin0_qPQL34S8nM-Jz-564">
          <mxGeometry x="275.5" y="325" width="50" height="40" as="geometry" />
        </mxCell>
        <mxCell id="jMVin0_qPQL34S8nM-Jz-577" value="" style="endArrow=none;html=1;rounded=0;exitX=0;exitY=0.5;exitDx=0;exitDy=0;entryX=0.5;entryY=1;entryDx=0;entryDy=0;" edge="1" parent="jMVin0_qPQL34S8nM-Jz-564" source="jMVin0_qPQL34S8nM-Jz-575" target="jMVin0_qPQL34S8nM-Jz-567">
          <mxGeometry width="50" height="50" relative="1" as="geometry">
            <mxPoint x="375.5" y="210" as="sourcePoint" />
            <mxPoint x="425.5" y="160" as="targetPoint" />
          </mxGeometry>
        </mxCell>
        <mxCell id="jMVin0_qPQL34S8nM-Jz-578" value="" style="endArrow=none;html=1;rounded=0;exitX=0;exitY=0.5;exitDx=0;exitDy=0;entryX=0.5;entryY=1;entryDx=0;entryDy=0;" edge="1" parent="jMVin0_qPQL34S8nM-Jz-564" source="jMVin0_qPQL34S8nM-Jz-576" target="jMVin0_qPQL34S8nM-Jz-568">
          <mxGeometry width="50" height="50" relative="1" as="geometry">
            <mxPoint x="165.5" y="270" as="sourcePoint" />
            <mxPoint x="165.5" y="230" as="targetPoint" />
          </mxGeometry>
        </mxCell>
        <mxCell id="jMVin0_qPQL34S8nM-Jz-579" value="település" style="ellipse;whiteSpace=wrap;html=1;container=0;" vertex="1" parent="jMVin0_qPQL34S8nM-Jz-564">
          <mxGeometry x="350.5" y="320" width="120" height="60" as="geometry" />
        </mxCell>
        <mxCell id="jMVin0_qPQL34S8nM-Jz-580" value="utca" style="ellipse;whiteSpace=wrap;html=1;container=0;" vertex="1" parent="jMVin0_qPQL34S8nM-Jz-564">
          <mxGeometry x="482.5" y="320" width="120" height="60" as="geometry" />
        </mxCell>
        <mxCell id="jMVin0_qPQL34S8nM-Jz-581" value="" style="endArrow=none;html=1;rounded=0;exitX=0.5;exitY=0;exitDx=0;exitDy=0;entryX=0;entryY=1;entryDx=0;entryDy=0;" edge="1" parent="jMVin0_qPQL34S8nM-Jz-564" source="jMVin0_qPQL34S8nM-Jz-579" target="jMVin0_qPQL34S8nM-Jz-569">
          <mxGeometry width="50" height="50" relative="1" as="geometry">
            <mxPoint x="445.5" y="180" as="sourcePoint" />
            <mxPoint x="495.5" y="130" as="targetPoint" />
          </mxGeometry>
        </mxCell>
        <mxCell id="jMVin0_qPQL34S8nM-Jz-582" value="" style="endArrow=none;html=1;rounded=0;exitX=0.5;exitY=0;exitDx=0;exitDy=0;entryX=0.5;entryY=1;entryDx=0;entryDy=0;" edge="1" parent="jMVin0_qPQL34S8nM-Jz-564" source="jMVin0_qPQL34S8nM-Jz-580" target="jMVin0_qPQL34S8nM-Jz-569">
          <mxGeometry width="50" height="50" relative="1" as="geometry">
            <mxPoint x="445.5" y="180" as="sourcePoint" />
            <mxPoint x="495.5" y="130" as="targetPoint" />
          </mxGeometry>
        </mxCell>
        <mxCell id="jMVin0_qPQL34S8nM-Jz-583" value="" style="group" vertex="1" connectable="0" parent="jMVin0_qPQL34S8nM-Jz-564">
          <mxGeometry x="240.5" width="120" height="60" as="geometry" />
        </mxCell>
        <mxCell id="jMVin0_qPQL34S8nM-Jz-584" value="" style="ellipse;whiteSpace=wrap;html=1;container=0;" vertex="1" parent="jMVin0_qPQL34S8nM-Jz-583">
          <mxGeometry width="120" height="60" as="geometry" />
        </mxCell>
        <mxCell id="jMVin0_qPQL34S8nM-Jz-585" value="Résztvevő" style="ellipse;whiteSpace=wrap;html=1;container=0;" vertex="1" parent="jMVin0_qPQL34S8nM-Jz-583">
          <mxGeometry x="5" y="5" width="110" height="50" as="geometry" />
        </mxCell>
        <mxCell id="jMVin0_qPQL34S8nM-Jz-586" value="fesztivál" style="rhombus;whiteSpace=wrap;html=1;container=0;" vertex="1" parent="1">
          <mxGeometry x="5280" y="684.38" width="80" height="80" as="geometry" />
        </mxCell>
        <mxCell id="jMVin0_qPQL34S8nM-Jz-587" value="" style="endArrow=none;html=1;rounded=0;entryX=1;entryY=0.5;entryDx=0;entryDy=0;exitX=0.5;exitY=0;exitDx=0;exitDy=0;" edge="1" parent="1" source="jMVin0_qPQL34S8nM-Jz-586" target="jMVin0_qPQL34S8nM-Jz-584">
          <mxGeometry width="50" height="50" relative="1" as="geometry">
            <mxPoint x="4270" y="696.25" as="sourcePoint" />
            <mxPoint x="4320" y="646.25" as="targetPoint" />
          </mxGeometry>
        </mxCell>
        <mxCell id="jMVin0_qPQL34S8nM-Jz-588" value="" style="endArrow=none;dashed=1;html=1;rounded=0;" edge="1" parent="1">
          <mxGeometry width="50" height="50" relative="1" as="geometry">
            <mxPoint x="5287" y="730.66" as="sourcePoint" />
            <mxPoint x="5357" y="730.66" as="targetPoint" />
            <Array as="points">
              <mxPoint x="5357" y="730.25" />
            </Array>
          </mxGeometry>
        </mxCell>
        <mxCell id="jMVin0_qPQL34S8nM-Jz-589" value="Fesztivál_ZF440N" style="ellipse;whiteSpace=wrap;html=1;" vertex="1" parent="1">
          <mxGeometry x="2430" y="320" width="120" height="60" as="geometry" />
        </mxCell>
        <mxCell id="jMVin0_qPQL34S8nM-Jz-590" value="" style="endArrow=none;html=1;rounded=0;entryX=0;entryY=0.5;entryDx=0;entryDy=0;exitX=0.5;exitY=0;exitDx=0;exitDy=0;" edge="1" parent="1" source="jMVin0_qPQL34S8nM-Jz-13" target="jMVin0_qPQL34S8nM-Jz-589">
          <mxGeometry width="50" height="50" relative="1" as="geometry">
            <mxPoint x="2220" y="490" as="sourcePoint" />
            <mxPoint x="2270" y="440" as="targetPoint" />
          </mxGeometry>
        </mxCell>
        <mxCell id="jMVin0_qPQL34S8nM-Jz-591" value="" style="endArrow=none;html=1;rounded=0;entryX=0;entryY=1;entryDx=0;entryDy=0;exitX=0.5;exitY=0;exitDx=0;exitDy=0;" edge="1" parent="1" source="jMVin0_qPQL34S8nM-Jz-354" target="jMVin0_qPQL34S8nM-Jz-589">
          <mxGeometry width="50" height="50" relative="1" as="geometry">
            <mxPoint x="385" y="550" as="sourcePoint" />
            <mxPoint x="2570" y="90" as="targetPoint" />
          </mxGeometry>
        </mxCell>
        <mxCell id="jMVin0_qPQL34S8nM-Jz-592" value="" style="endArrow=none;html=1;rounded=0;entryX=0.5;entryY=1;entryDx=0;entryDy=0;exitX=0.601;exitY=-0.009;exitDx=0;exitDy=0;exitPerimeter=0;" edge="1" parent="1" source="jMVin0_qPQL34S8nM-Jz-378" target="jMVin0_qPQL34S8nM-Jz-589">
          <mxGeometry width="50" height="50" relative="1" as="geometry">
            <mxPoint x="395" y="560" as="sourcePoint" />
            <mxPoint x="2580" y="100" as="targetPoint" />
          </mxGeometry>
        </mxCell>
        <mxCell id="jMVin0_qPQL34S8nM-Jz-593" value="" style="endArrow=none;html=1;rounded=0;exitX=0.5;exitY=0;exitDx=0;exitDy=0;entryX=0.5;entryY=1;entryDx=0;entryDy=0;" edge="1" parent="1" source="jMVin0_qPQL34S8nM-Jz-417" target="jMVin0_qPQL34S8nM-Jz-589">
          <mxGeometry width="50" height="50" relative="1" as="geometry">
            <mxPoint x="1848" y="530" as="sourcePoint" />
            <mxPoint x="2600" y="100" as="targetPoint" />
          </mxGeometry>
        </mxCell>
        <mxCell id="jMVin0_qPQL34S8nM-Jz-594" value="" style="endArrow=none;html=1;rounded=0;exitX=0.5;exitY=0;exitDx=0;exitDy=0;entryX=0.5;entryY=1;entryDx=0;entryDy=0;" edge="1" parent="1" source="jMVin0_qPQL34S8nM-Jz-473" target="jMVin0_qPQL34S8nM-Jz-589">
          <mxGeometry width="50" height="50" relative="1" as="geometry">
            <mxPoint x="2515" y="527" as="sourcePoint" />
            <mxPoint x="2630" y="90" as="targetPoint" />
          </mxGeometry>
        </mxCell>
        <mxCell id="jMVin0_qPQL34S8nM-Jz-596" value="" style="endArrow=none;html=1;rounded=0;entryX=1;entryY=1;entryDx=0;entryDy=0;exitX=0.5;exitY=0;exitDx=0;exitDy=0;" edge="1" parent="1" source="jMVin0_qPQL34S8nM-Jz-545" target="jMVin0_qPQL34S8nM-Jz-589">
          <mxGeometry width="50" height="50" relative="1" as="geometry">
            <mxPoint x="3100" y="535" as="sourcePoint" />
            <mxPoint x="2672" y="111" as="targetPoint" />
          </mxGeometry>
        </mxCell>
        <mxCell id="jMVin0_qPQL34S8nM-Jz-597" value="" style="endArrow=none;html=1;rounded=0;entryX=1;entryY=0.5;entryDx=0;entryDy=0;exitX=0.5;exitY=0;exitDx=0;exitDy=0;" edge="1" parent="1" source="jMVin0_qPQL34S8nM-Jz-563" target="jMVin0_qPQL34S8nM-Jz-589">
          <mxGeometry width="50" height="50" relative="1" as="geometry">
            <mxPoint x="3645" y="545" as="sourcePoint" />
            <mxPoint x="2690" y="90" as="targetPoint" />
          </mxGeometry>
        </mxCell>
        <mxCell id="jMVin0_qPQL34S8nM-Jz-598" value="" style="endArrow=none;html=1;rounded=0;entryX=1;entryY=0.5;entryDx=0;entryDy=0;exitX=0;exitY=0;exitDx=0;exitDy=0;" edge="1" parent="1" source="jMVin0_qPQL34S8nM-Jz-585" target="jMVin0_qPQL34S8nM-Jz-589">
          <mxGeometry width="50" height="50" relative="1" as="geometry">
            <mxPoint x="4790" y="542" as="sourcePoint" />
            <mxPoint x="2690" y="90" as="targetPoint" />
          </mxGeometry>
        </mxCell>
        <mxCell id="jMVin0_qPQL34S8nM-Jz-599" value="" style="endArrow=none;dashed=1;html=1;rounded=0;entryX=0.5;entryY=1;entryDx=0;entryDy=0;entryPerimeter=0;exitX=0.5;exitY=1;exitDx=0;exitDy=0;exitPerimeter=0;" edge="1" parent="1" source="jMVin0_qPQL34S8nM-Jz-373" target="jMVin0_qPQL34S8nM-Jz-21">
          <mxGeometry width="50" height="50" relative="1" as="geometry">
            <mxPoint x="1377.6190476190477" y="1040" as="sourcePoint" />
            <mxPoint x="440" y="830" as="targetPoint" />
            <Array as="points">
              <mxPoint x="1360" y="1040" />
              <mxPoint x="130" y="1040" />
            </Array>
          </mxGeometry>
        </mxCell>
        <mxCell id="jMVin0_qPQL34S8nM-Jz-600" value="" style="endArrow=none;dashed=1;html=1;rounded=0;entryX=0.5;entryY=1;entryDx=0;entryDy=0;entryPerimeter=0;exitX=0.5;exitY=1;exitDx=0;exitDy=0;" edge="1" parent="1" source="jMVin0_qPQL34S8nM-Jz-586" target="jMVin0_qPQL34S8nM-Jz-21">
          <mxGeometry width="50" height="50" relative="1" as="geometry">
            <mxPoint x="110" y="1120" as="sourcePoint" />
            <mxPoint x="240" y="830" as="targetPoint" />
            <Array as="points">
              <mxPoint x="5320" y="1120" />
              <mxPoint x="40" y="1120" />
              <mxPoint x="40" y="840" />
            </Array>
          </mxGeometry>
        </mxCell>
        <mxCell id="jMVin0_qPQL34S8nM-Jz-601" value="" style="endArrow=none;dashed=1;html=1;rounded=0;exitX=0.5;exitY=1;exitDx=0;exitDy=0;exitPerimeter=0;" edge="1" parent="1" source="jMVin0_qPQL34S8nM-Jz-394">
          <mxGeometry width="50" height="50" relative="1" as="geometry">
            <mxPoint x="170" y="1080" as="sourcePoint" />
            <mxPoint x="100" y="840" as="targetPoint" />
            <Array as="points">
              <mxPoint x="2055" y="1050" />
              <mxPoint x="100" y="1050" />
            </Array>
          </mxGeometry>
        </mxCell>
        <mxCell id="jMVin0_qPQL34S8nM-Jz-602" value="" style="endArrow=none;dashed=1;html=1;rounded=0;exitX=0.5;exitY=1;exitDx=0;exitDy=0;" edge="1" parent="1" source="jMVin0_qPQL34S8nM-Jz-462">
          <mxGeometry width="50" height="50" relative="1" as="geometry">
            <mxPoint x="3151.904761904762" y="1080" as="sourcePoint" />
            <mxPoint x="80" y="840" as="targetPoint" />
            <Array as="points">
              <mxPoint x="3330" y="1080" />
              <mxPoint x="80" y="1080" />
            </Array>
          </mxGeometry>
        </mxCell>
        <mxCell id="jMVin0_qPQL34S8nM-Jz-603" value="" style="endArrow=classic;html=1;rounded=0;" edge="1" parent="1">
          <mxGeometry width="50" height="50" relative="1" as="geometry">
            <mxPoint x="130" y="900" as="sourcePoint" />
            <mxPoint x="130" y="840" as="targetPoint" />
          </mxGeometry>
        </mxCell>
        <mxCell id="jMVin0_qPQL34S8nM-Jz-604" value="" style="endArrow=classic;html=1;rounded=0;" edge="1" parent="1">
          <mxGeometry width="50" height="50" relative="1" as="geometry">
            <mxPoint x="80" y="840" as="sourcePoint" />
            <mxPoint x="130" y="840" as="targetPoint" />
          </mxGeometry>
        </mxCell>
        <mxCell id="jMVin0_qPQL34S8nM-Jz-606" value="" style="endArrow=classic;html=1;rounded=0;" edge="1" parent="1">
          <mxGeometry width="50" height="50" relative="1" as="geometry">
            <mxPoint x="2850" y="770" as="sourcePoint" />
            <mxPoint x="2850" y="740" as="targetPoint" />
          </mxGeometry>
        </mxCell>
        <mxCell id="jMVin0_qPQL34S8nM-Jz-607" value="" style="endArrow=none;dashed=1;html=1;rounded=0;entryX=0.5;entryY=1;entryDx=0;entryDy=0;entryPerimeter=0;" edge="1" parent="1" target="jMVin0_qPQL34S8nM-Jz-432">
          <mxGeometry width="50" height="50" relative="1" as="geometry">
            <mxPoint x="2850" y="770" as="sourcePoint" />
            <mxPoint x="2490" y="840" as="targetPoint" />
            <Array as="points">
              <mxPoint x="2850" y="880" />
              <mxPoint x="2715" y="880" />
            </Array>
          </mxGeometry>
        </mxCell>
        <mxCell id="jMVin0_qPQL34S8nM-Jz-608" value="" style="endArrow=classic;html=1;rounded=0;entryX=0.5;entryY=1;entryDx=0;entryDy=0;" edge="1" parent="1" target="jMVin0_qPQL34S8nM-Jz-553">
          <mxGeometry width="50" height="50" relative="1" as="geometry">
            <mxPoint x="4070" y="790" as="sourcePoint" />
            <mxPoint x="2860" y="750" as="targetPoint" />
          </mxGeometry>
        </mxCell>
        <mxCell id="jMVin0_qPQL34S8nM-Jz-609" value="" style="endArrow=none;dashed=1;html=1;rounded=0;exitX=0.5;exitY=1;exitDx=0;exitDy=0;" edge="1" parent="1" source="jMVin0_qPQL34S8nM-Jz-535">
          <mxGeometry width="50" height="50" relative="1" as="geometry">
            <mxPoint x="3920" y="960" as="sourcePoint" />
            <mxPoint x="4070" y="790" as="targetPoint" />
            <Array as="points">
              <mxPoint x="3875" y="840" />
              <mxPoint x="4070" y="840" />
            </Array>
          </mxGeometry>
        </mxCell>
        <mxCell id="jMVin0_qPQL34S8nM-Jz-610" value="" style="endArrow=classic;html=1;rounded=0;entryX=0.5;entryY=1;entryDx=0;entryDy=0;" edge="1" parent="1" target="jMVin0_qPQL34S8nM-Jz-570">
          <mxGeometry width="50" height="50" relative="1" as="geometry">
            <mxPoint x="4600" y="780" as="sourcePoint" />
            <mxPoint x="4080" y="765" as="targetPoint" />
          </mxGeometry>
        </mxCell>
        <mxCell id="jMVin0_qPQL34S8nM-Jz-611" value="" style="endArrow=none;dashed=1;html=1;rounded=0;exitX=0.5;exitY=1;exitDx=0;exitDy=0;" edge="1" parent="1" source="jMVin0_qPQL34S8nM-Jz-546">
          <mxGeometry width="50" height="50" relative="1" as="geometry">
            <mxPoint x="3885" y="764" as="sourcePoint" />
            <mxPoint x="4600" y="780" as="targetPoint" />
            <Array as="points">
              <mxPoint x="3775" y="1000" />
              <mxPoint x="4130" y="1000" />
              <mxPoint x="4600" y="1000" />
            </Array>
          </mxGeometry>
        </mxCell>
      </root>
    </mxGraphModel>
  </diagram>
</mxfile>
